<?xml version="1.0" encoding="UTF-8"?>
<!DOCTYPE svg PUBLIC "-//W3C//DTD SVG 1.1//EN" "http://www.w3.org/Graphics/SVG/1.1/DTD/svg11.dtd">
<!-- Creator: CorelDRAW X7 -->
<svg xmlns="http://www.w3.org/2000/svg" xml:space="preserve" width="226px" height="396px" version="1.1" style="shape-rendering:geometricPrecision; text-rendering:geometricPrecision; image-rendering:optimizeQuality; fill-rule:evenodd; clip-rule:evenodd; fill:#025FA6;fill:#0B9C5B"
viewBox="0 0 226 396"
 xmlns:xlink="http://www.w3.org/1999/xlink">
 <defs>
  <style type="text/css">
   <![CDATA[
    .fil1 {fill:#025FA6}
    .fil0 {fill:#0B9C5B}
   ]]>
  </style>
 </defs>
 <g id="Слой_x0020_1">
  <metadata id="CorelCorpID_0Corel-Layer"/>
  <path class="fil0" d="M132 19l-19 -19 -19 19 19 19 19 -19zm19 19l-19 19 -19 -19 -18 19 -19 -19 -19 19 56 56 57 -56 -19 -19z"/>
  <path class="fil1" d="M226 113l-38 -38 -75 76 -75 -76 -38 38 85 85 0 103 56 0 0 -103 85 -85z"/>
  <path class="fil0" d="M226 188l-56 0 -1 94c0,31 -25,57 -56,57 -30,0 -55,-24 -57,-53l1 0 0 -98 -57 0 0 94c0,0 0,1 0,1 0,62 50,113 113,113 61,0 110,-48 113,-108l0 -100z"/>
 </g>
</svg>
